<?xml version="1.0" standalone="no"?>
<!DOCTYPE svg PUBLIC "-//W3C//DTD SVG 20010904//EN"
 "http://www.w3.org/TR/2001/REC-SVG-20010904/DTD/svg10.dtd">
<svg version="1.0" xmlns="http://www.w3.org/2000/svg"
 width="512.000000pt" height="512.000000pt" viewBox="0 0 512.000000 512.000000"
 preserveAspectRatio="xMidYMid meet">

<g transform="translate(0.000000,512.000000) scale(0.100000,-0.100000)"
fill="#000000" stroke="none">
<path d="M2775 4460 c-113 -27 -222 -92 -282 -168 l-33 -41 -80 30 c-97 35
-158 37 -236 8 -68 -25 -137 -90 -165 -154 -75 -170 10 -347 202 -419 l45 -17
1 -92 c2 -142 47 -250 143 -345 62 -62 117 -90 361 -191 109 -44 209 -86 224
-93 26 -12 25 -13 -342 -380 l-368 -368 -632 0 -633 0 0 164 c0 160 -1 166
-24 193 l-24 28 -171 3 -171 3 0 254 c0 176 -4 262 -12 280 -23 50 -48 55
-283 55 -237 0 -262 -5 -284 -57 -8 -21 -11 -340 -9 -1235 l3 -1208 28 -27 27
-28 220 -3 c241 -3 275 3 299 54 7 17 11 110 11 279 l0 255 150 0 c152 0 206
10 226 41 5 8 11 91 14 184 l5 170 730 5 730 5 50 24 c39 19 164 138 566 538
l516 514 209 -86 c120 -50 223 -87 242 -87 24 0 44 9 65 29 30 28 35 29 87 21
187 -28 417 66 531 217 37 49 44 54 78 53 76 -1 69 -12 226 366 115 279 119
300 72 343 -18 17 -1973 834 -2086 871 -47 16 -179 23 -226 12z m1140 -600
c534 -221 971 -403 973 -405 7 -6 -146 -360 -154 -358 -5 1 -185 74 -399 163
-215 89 -404 166 -421 171 -61 18 -124 -28 -124 -90 1 -64 19 -77 210 -156 63
-26 116 -48 118 -49 6 -7 -148 -361 -157 -359 -28 7 -1353 559 -1395 581 -92
50 -155 170 -143 274 6 46 130 365 187 478 56 111 145 163 270 156 59 -3 151
-39 1035 -406z m-1592 233 c26 -9 47 -22 47 -27 0 -6 -16 -50 -36 -98 l-36
-86 -46 16 c-101 37 -134 121 -73 183 35 34 72 38 144 12z m2139 -1099 c35
-14 74 -31 87 -36 l24 -9 -39 -40 c-60 -62 -164 -109 -257 -116 -56 -4 -77 -3
-77 6 0 6 23 68 51 136 l51 124 48 -19 c27 -11 77 -31 112 -46z m-4072 -1064
l0 -1080 -95 0 -95 0 0 1080 0 1080 95 0 95 0 0 -1080z m2892 914 c48 -20 88
-40 88 -43 0 -3 -166 -172 -368 -374 l-368 -368 -32 45 c-18 24 -48 54 -67 66
-19 12 -35 25 -35 28 0 11 674 682 685 682 5 0 49 -16 97 -36z m-2492 -914 l0
-490 -100 0 -100 0 0 490 0 490 100 0 100 0 0 -490z m1285 0 l0 -100 -545 2
-545 3 -3 98 -3 97 548 0 548 0 0 -100z m334 86 c51 -27 66 -95 30 -140 -30
-38 -64 -49 -105 -36 -70 23 -88 108 -35 161 33 32 67 37 110 15z"/>
<path d="M3557 3530 c-33 -26 -46 -66 -35 -107 11 -41 46 -65 95 -65 29 0 43
7 65 31 15 17 28 42 28 56 0 83 -91 134 -153 85z"/>
</g>
</svg>
